<?xml version="1.0" encoding="UTF-8" standalone="no"?><!DOCTYPE svg PUBLIC "-//W3C//DTD SVG 1.1//EN" "http://www.w3.org/Graphics/SVG/1.1/DTD/svg11.dtd"><svg width="100%" height="100%" viewBox="0 0 834 625" version="1.1" xmlns="http://www.w3.org/2000/svg" xmlns:xlink="http://www.w3.org/1999/xlink" xml:space="preserve" xmlns:serif="http://www.serif.com/" style="fill-rule:evenodd;clip-rule:evenodd;stroke-linejoin:round;stroke-miterlimit:2;"><g><path d="M373.549,19.184l-329.306,89.696c-9.575,2.608 -15.219,12.477 -12.611,22.052l127.464,467.962c2.608,9.575 12.477,15.219 22.052,12.611l329.306,-89.696c9.575,-2.609 15.219,-12.478 12.611,-22.053l-127.463,-467.961c-2.609,-9.576 -12.477,-15.22 -22.053,-12.611" style="fill:#e6eef4;fill-rule:nonzero;stroke:#000;stroke-width:1.25px;"/><g><path d="M347.33,422.078c5.761,21.671 17.495,41.754 21.382,48.041c0.64,1.036 0.072,2.346 -1.098,2.657l-65.11,17.311c-1.17,0.311 -2.304,-0.547 -2.27,-1.753c0.224,-7.417 0.399,-30.919 -5.293,-52.329c-6.965,8.546 -16.08,14.419 -27.073,17.341c-31.922,8.488 -66.745,-10.954 -73.338,-43.809c-3.716,-18.476 3.716,-37.148 16.564,-50.922c12.896,-13.834 27.044,-18.428 40.708,-18.723c-10.791,-7.536 -19.084,-18.756 -22.729,-32.464c-9.16,-34.454 14.85,-69.921 52.38,-72.505c23.49,-1.627 46.123,12.016 55.843,33.457c7.545,16.635 6.659,34.222 -0.25,48.847c12.089,-6.57 26.772,-9.604 45.008,-3.852c17.94,5.664 33.611,18.156 39.491,36.019c10.439,31.739 -10.247,65.818 -42.099,74.286c-10.843,2.885 -22.019,2.267 -32.116,-1.602" style="fill-rule:nonzero;"/><path d="M140.863,243.255c19.229,-5.112 30.752,-24.982 25.64,-44.211l-13.929,-52.389c-1.282,-4.821 -6.23,-7.692 -11.053,-6.41c-4.822,1.282 -7.693,6.231 -6.41,11.054l13.928,52.388c2.548,9.585 -3.235,19.558 -12.82,22.106c-7.402,1.968 -15.254,-1.019 -19.557,-7.267c-2.83,-4.11 -8.456,-5.146 -12.566,-2.316c-4.109,2.831 -5.145,8.456 -2.315,12.566c8.597,12.478 24.234,18.427 39.082,14.479Z" style="fill-rule:nonzero;"/><path d="M108.361,121.018c-19.291,5.128 -30.768,24.921 -25.64,44.21c5.129,19.29 24.921,30.769 44.211,25.64c19.289,-5.128 30.768,-24.921 25.64,-44.211c-5.129,-19.289 -24.922,-30.768 -44.211,-25.639Zm13.928,52.387c-9.646,2.565 -19.541,-3.174 -22.105,-12.819c-2.565,-9.646 3.174,-19.541 12.819,-22.106c9.646,-2.564 19.541,3.174 22.106,12.82c2.564,9.646 -3.174,19.541 -12.82,22.105Z" style="fill-rule:nonzero;"/></g></g><g><path d="M795.459,117.535l-326.765,-98.099c-9.501,-2.853 -19.508,2.533 -22.361,12.035l-139.404,464.351c-2.852,9.501 2.534,19.508 12.035,22.361l326.765,98.099c9.502,2.852 19.509,-2.534 22.361,-12.035l139.404,-464.351c2.853,-9.502 -2.532,-19.508 -12.035,-22.361" style="fill:#e6eef4;fill-rule:nonzero;stroke:#000;stroke-width:1.04px;"/><g><path d="M564.538,307.369c16.515,-19.731 41.638,-32.109 65.33,-24.185c19.94,6.669 34.576,21.987 41.376,41.46c8.529,24.435 4.694,71.194 -39.176,93.074c-22.256,11.099 -125.692,63.548 -125.692,63.548c0,0 -51.068,-104.125 -62.167,-126.38c-21.88,-43.871 3.188,-83.529 24.702,-97.915c17.148,-11.464 38.054,-14.895 57.995,-8.225c23.69,7.924 36.311,32.926 37.632,58.623" style="fill:#d71e00;fill-rule:nonzero;"/><path d="M476.304,185.789c18.237,6.099 38.102,-3.808 44.202,-22.045l16.618,-49.685c1.529,-4.573 -0.938,-9.521 -5.512,-11.051c-4.574,-1.53 -9.521,0.937 -11.051,5.511l-16.618,49.686c-3.04,9.09 -13.011,14.062 -22.1,11.022c-7.033,-2.352 -11.787,-8.97 -11.919,-16.325c-0.086,-4.821 -4.065,-8.661 -8.887,-8.574c-4.821,0.086 -8.66,4.065 -8.574,8.887c0.266,14.68 9.728,27.854 23.841,32.574Z" style="fill:#d71e00;fill-rule:nonzero;"/><path d="M515.078,69.855c-18.295,-6.119 -38.083,3.751 -44.202,22.045c-6.118,18.294 3.751,38.082 22.045,44.201c18.294,6.119 38.083,-3.75 44.201,-22.045c6.119,-18.294 -3.75,-38.082 -22.044,-44.201Zm-16.618,49.685c-9.148,-3.06 -14.082,-12.953 -11.022,-22.101c3.06,-9.148 12.953,-14.082 22.101,-11.022c9.147,3.059 14.081,12.952 11.022,22.1c-3.06,9.148 -12.953,14.082 -22.101,11.023Z" style="fill:#d71e00;fill-rule:nonzero;"/></g></g></svg>