<?xml version="1.0" encoding="UTF-8" standalone="no"?><!DOCTYPE svg PUBLIC "-//W3C//DTD SVG 1.1//EN" "http://www.w3.org/Graphics/SVG/1.1/DTD/svg11.dtd"><svg width="100%" height="100%" viewBox="0 0 1738 1738" version="1.1" xmlns="http://www.w3.org/2000/svg" xmlns:xlink="http://www.w3.org/1999/xlink" xml:space="preserve" xmlns:serif="http://www.serif.com/" style="fill-rule:evenodd;clip-rule:evenodd;stroke-linejoin:round;stroke-miterlimit:2;"><g id="shield"><g><g><path d="M546.019,358.982c-33.006,0 -58.678,25.677 -58.678,58.683c-0,33.007 25.672,58.679 58.678,58.679c33.007,-0 58.684,-25.672 58.684,-58.679c-0,-33.006 -25.677,-58.683 -58.684,-58.683Zm0,88.018c-18.332,-0 -33.006,-14.67 -33.006,-33.007c-0,-18.332 14.674,-33.007 33.006,-33.007c18.337,0 33.007,14.675 33.007,33.007c-0,18.337 -14.67,33.007 -33.007,33.007Z" style="fill:#e0e0df;fill-rule:nonzero;"/><path d="M113.267,736.729l88.017,920.511c3.667,40.341 40.341,73.348 88.018,73.348l498.765,-0c44.009,-0 84.35,-33.007 88.018,-73.348l88.017,-920.511l-850.835,-0Z" style="fill:#9b9592;fill-rule:nonzero;"/><path d="M1008.11,590.028l-924.184,-0c-44.008,-0 -77.015,33.007 -77.015,73.348c0,40.341 36.679,73.348 77.015,73.348l924.184,-0c44.009,-0 77.015,-33.007 77.015,-73.348c3.673,-40.341 -33.006,-73.348 -77.015,-73.348Z" style="fill:#e0e0df;fill-rule:nonzero;"/><path d="M949.433,590.028c-106.355,-88.018 -249.383,-143.028 -403.414,-143.028c-154.03,-0 -297.059,55.01 -403.408,143.028l806.822,-0Z" style="fill:#c6c4c3;fill-rule:nonzero;"/><path d="M303.971,887.087c-18.332,-0 -33.006,18.337 -33.006,36.679l40.341,630.792c-0,14.67 14.669,25.672 29.339,25.672c14.67,-0 29.339,-11.002 25.672,-25.672l-25.672,-630.792c0.005,-22.004 -18.337,-36.679 -36.674,-36.679Z" style="fill:#e0e0df;fill-rule:nonzero;"/><path d="M538.69,887.087c-18.337,-0 -33.007,18.337 -33.007,36.679l3.667,630.792c0,14.67 11.003,25.672 29.34,25.672c18.331,-0 29.334,-11.002 29.334,-25.672l3.672,-630.792c0,-22.004 -14.675,-36.679 -33.006,-36.679Z" style="fill:#e0e0df;fill-rule:nonzero;"/><path d="M773.398,887.087c-18.337,-0 -33.007,18.337 -36.674,36.679l-29.339,630.792c-0,14.67 11.002,25.672 25.671,25.672c14.675,-0 29.34,-11.002 29.34,-25.672l40.341,-630.792c3.667,-22.004 -10.997,-36.679 -29.339,-36.679Z" style="fill:#e0e0df;fill-rule:nonzero;"/></g><path d="M1367.52,6.912c-33.007,0 -58.679,25.677 -58.679,58.683l0,975.523c0,33.006 25.672,58.683 58.679,58.683c33.006,0 58.678,-25.677 58.678,-58.683l0,-975.523c0,-33.006 -25.672,-58.683 -58.678,-58.683Z" style="fill:#e14a4a;fill-rule:nonzero;"/><path d="M1488.54,1202.48l-242.048,-0c-22.005,-0 -40.342,-18.337 -40.342,-40.341c0,-22.005 18.337,-40.337 40.342,-40.337l242.048,0c22.004,0 40.341,18.332 40.341,40.337c-3.667,22.004 -21.999,40.341 -40.341,40.341Z" style="fill:#637888;fill-rule:nonzero;"/><path d="M1426.19,1037.45l-117.351,0c-14.675,0 -25.677,11.002 -25.677,25.672l-0,62.346l165.032,-0l0,-62.346c0,-14.67 -11.002,-25.672 -22.004,-25.672Z" style="fill:#f16d6e;fill-rule:nonzero;"/><path d="M1561.89,1730.59l33.006,-0l-69.685,-132.026l36.679,132.026Z" style="fill:#ef9f2c;fill-rule:nonzero;"/><path d="M1624.23,1730.59l106.355,-0l-253.05,-528.105l-223.706,-0l-253.051,528.105l561.112,-0l-36.679,-132.026l69.685,132.026l3.663,-0l-121.024,-359.405l146.695,359.405Z" style="fill:#fec656;fill-rule:nonzero;"/><path d="M1477.54,1371.18l121.024,359.405l25.671,-0l-146.695,-359.405Z" style="fill:#ef9f2c;fill-rule:nonzero;"/></g></g></svg>