<?xml version="1.0" encoding="UTF-8" standalone="no"?><!DOCTYPE svg PUBLIC "-//W3C//DTD SVG 1.1//EN" "http://www.w3.org/Graphics/SVG/1.1/DTD/svg11.dtd"><svg width="100%" height="100%" viewBox="0 0 834 625" version="1.1" xmlns="http://www.w3.org/2000/svg" xmlns:xlink="http://www.w3.org/1999/xlink" xml:space="preserve" xmlns:serif="http://www.serif.com/" style="fill-rule:evenodd;clip-rule:evenodd;stroke-linejoin:round;stroke-miterlimit:2;"><g><path d="M373.549,19.184l-329.306,89.696c-9.575,2.608 -15.219,12.477 -12.611,22.052l127.464,467.962c2.608,9.575 12.477,15.219 22.052,12.611l329.306,-89.696c9.575,-2.609 15.219,-12.478 12.611,-22.053l-127.463,-467.961c-2.609,-9.576 -12.477,-15.22 -22.053,-12.611" style="fill:#e6eef4;fill-rule:nonzero;stroke:#000;stroke-width:1.25px;"/><g><path d="M288.526,304.173c2.905,-26.641 17.518,-51.885 42.624,-58.712c21.131,-5.747 42.664,-0.934 59.811,12.007c21.511,16.241 45.213,58.97 19.85,103.282c-12.868,22.479 -72.171,127.702 -72.171,127.702c-0,-0 -104.425,-60.698 -126.904,-73.566c-44.312,-25.364 -45.514,-74.212 -35.189,-99.11c8.232,-19.843 24.362,-34.898 45.493,-40.645c25.105,-6.826 50.49,7.542 66.486,29.042" style="fill:#d71e00;fill-rule:nonzero;"/><path d="M139.499,137.368c4.846,-1.318 7.708,-6.315 6.389,-11.162c-1.318,-4.847 -6.315,-7.707 -11.162,-6.389l-52.651,14.318c-4.846,1.318 -7.708,6.315 -6.39,11.162c1.319,4.847 6.315,7.707 11.163,6.389l52.651,-14.318Z" style="fill:#d71e00;fill-rule:nonzero;"/><path d="M93.237,140.524c-1.318,-4.846 -6.315,-7.707 -11.162,-6.389c-4.846,1.318 -7.708,6.315 -6.39,11.162l2.387,8.776c1.318,4.846 6.315,7.707 11.162,6.389c4.846,-1.318 7.707,-6.315 6.389,-11.162l-2.386,-8.776Z" style="fill:#d71e00;fill-rule:nonzero;"/><path d="M116.826,226.788c0.495,4.998 4.949,8.648 9.947,8.152c4.998,-0.495 8.648,-4.949 8.152,-9.947c-3.766,-37.978 -1.454,-56.791 10.814,-93.519c1.591,-4.764 -0.981,-9.916 -5.745,-11.507c-4.763,-1.59 -9.916,0.981 -11.506,5.745c-13.06,39.101 -15.688,60.48 -11.662,101.076Z" style="fill:#d71e00;fill-rule:nonzero;"/></g></g><g><path d="M795.459,117.535l-326.765,-98.099c-9.501,-2.853 -19.508,2.533 -22.361,12.035l-139.404,464.351c-2.852,9.501 2.534,19.508 12.035,22.361l326.765,98.099c9.502,2.852 19.509,-2.534 22.361,-12.035l139.404,-464.351c2.853,-9.502 -2.532,-19.508 -12.035,-22.361" style="fill:#e6eef4;fill-rule:nonzero;stroke:#000;stroke-width:1.04px;"/><g><path d="M564.048,304.73c16.6,-20.694 42.231,-33.993 66.822,-26.334c20.698,6.446 36.113,21.921 43.542,41.848c9.317,25.004 6.368,73.286 -38.383,96.782c-22.703,11.919 -128.197,68.206 -128.197,68.206c-0,-0 -54.878,-106.234 -66.797,-128.937c-23.496,-44.751 1.491,-86.17 23.359,-101.461c17.43,-12.185 38.906,-16.17 59.603,-9.724c24.591,7.659 38.137,33.16 40.051,59.62" style="fill:#d71e00;fill-rule:nonzero;"/><path d="M473.161,172.703c18.99,5.914 39.174,-4.684 45.088,-23.673c5.914,-18.989 -4.684,-39.175 -23.673,-45.089c-18.989,-5.914 -39.175,4.684 -45.089,23.673c-5.914,18.989 4.684,39.175 23.674,45.089Zm16.061,-51.572c9.496,2.958 14.794,13.049 11.837,22.545c-2.957,9.495 -13.049,14.794 -22.544,11.837c-9.496,-2.958 -14.794,-13.049 -11.837,-22.545c2.957,-9.495 13.049,-14.794 22.544,-11.837Z" style="fill:#d71e00;fill-rule:nonzero;"/><path d="M528.394,86.186c4.746,1.478 9.794,-1.171 11.272,-5.919c1.479,-4.748 -1.171,-9.794 -5.918,-11.273c-35.055,-10.917 -70.097,13.144 -84.26,58.619c-1.479,4.747 1.171,9.794 5.918,11.273c4.747,1.478 9.795,-1.171 11.273,-5.919c11.448,-36.759 37.175,-54.424 61.715,-46.781Z" style="fill:#d71e00;fill-rule:nonzero;"/></g></g></svg>