<?xml version="1.0" encoding="UTF-8" standalone="no"?><!DOCTYPE svg PUBLIC "-//W3C//DTD SVG 1.1//EN" "http://www.w3.org/Graphics/SVG/1.1/DTD/svg11.dtd"><svg width="100%" height="100%" viewBox="0 0 834 625" version="1.1" xmlns="http://www.w3.org/2000/svg" xmlns:xlink="http://www.w3.org/1999/xlink" xml:space="preserve" xmlns:serif="http://www.serif.com/" style="fill-rule:evenodd;clip-rule:evenodd;stroke-linejoin:round;stroke-miterlimit:2;"><g><path d="M373.549,19.184l-329.306,89.696c-9.575,2.608 -15.219,12.477 -12.611,22.052l127.464,467.962c2.608,9.575 12.477,15.219 22.052,12.611l329.306,-89.696c9.575,-2.609 15.219,-12.478 12.611,-22.053l-127.463,-467.961c-2.609,-9.576 -12.477,-15.22 -22.053,-12.611" style="fill:#e6eef4;fill-rule:nonzero;stroke:#000;stroke-width:1.25px;"/><g><path d="M256.105,237.351l-68.585,158.314l139.397,101.664l68.586,-158.314l-139.398,-101.664Z" style="fill:#d71e00;fill-rule:nonzero;"/><path d="M113.156,124.402c-4.786,-7.184 -15.961,-4.14 -16.443,4.478l-6.339,113.433c-0.277,4.953 3.514,9.192 8.466,9.469c4.953,0.277 9.192,-3.514 9.469,-8.466l6.338,-113.433l-16.442,4.478l62.989,94.55c2.75,4.128 8.326,5.245 12.454,2.495c4.128,-2.75 5.246,-8.326 2.495,-12.454l-62.987,-94.55Z" style="fill:#d71e00;fill-rule:nonzero;"/><path d="M144.257,202.654c4.786,-1.303 7.61,-6.24 6.306,-11.027c-1.304,-4.786 -6.24,-7.609 -11.027,-6.306l-34.664,9.442c-4.785,1.303 -7.609,6.24 -6.305,11.027c1.303,4.786 6.24,7.609 11.026,6.306l34.664,-9.442Z" style="fill:#d71e00;fill-rule:nonzero;"/></g></g><g><path d="M795.459,117.535l-326.765,-98.099c-9.501,-2.853 -19.508,2.533 -22.361,12.035l-139.404,464.351c-2.852,9.501 2.534,19.508 12.035,22.361l326.765,98.099c9.502,2.852 19.509,-2.534 22.361,-12.035l139.404,-464.351c2.853,-9.502 -2.532,-19.508 -12.035,-22.361" style="fill:#e6eef4;fill-rule:nonzero;stroke:#000;stroke-width:1.04px;"/><g><path d="M549.449,437.392c-6.407,21.343 -6.933,44.451 -6.916,51.796c0.002,1.21 -1.161,2.023 -2.313,1.677l-64.123,-19.25c-1.153,-0.346 -1.666,-1.663 -1.01,-2.666c4.052,-6.161 16.438,-25.963 22.767,-47.047c-10.344,3.606 -21.117,3.831 -31.943,0.581c-31.439,-9.439 -50.79,-44.027 -39.263,-75.269c6.475,-17.572 22.488,-29.507 40.535,-34.476c18.119,-4.994 32.486,-1.515 44.204,5.35c-5.209,-11.997 -6.386,-25.812 -2.333,-39.313c10.186,-33.932 48.976,-51.449 82.087,-34.094c20.73,10.854 32.783,34.186 29.846,57.395c-2.276,18.009 -12.183,32.433 -25.647,41.215c13.653,0.733 27.662,5.811 40.101,20.175c12.236,14.135 18.995,32.868 14.671,51.05c-7.691,32.3 -42.944,50.373 -74.314,40.955c-10.68,-3.204 -19.817,-9.547 -26.349,-18.079" style="fill-rule:nonzero;"/><path d="M518.937,69.052c-0.26,-8.625 -11.349,-11.954 -16.316,-4.899l-65.375,92.863c-2.855,4.054 -1.882,9.655 2.173,12.51c4.054,2.854 9.655,1.881 12.509,-2.173l65.375,-92.863l-16.315,-4.898l3.417,113.515c0.15,4.956 4.288,8.853 9.244,8.704c4.957,-0.15 8.854,-4.288 8.704,-9.245l-3.416,-113.514Z" style="fill-rule:nonzero;"/><path d="M503.927,151.877c4.749,1.426 9.755,-1.268 11.181,-6.018c1.426,-4.749 -1.268,-9.755 -6.018,-11.181l-34.396,-10.326c-4.748,-1.426 -9.755,1.268 -11.181,6.018c-1.425,4.748 1.268,9.755 6.018,11.181l34.396,10.326Z" style="fill-rule:nonzero;"/></g></g></svg>