<?xml version="1.0" encoding="UTF-8" standalone="no"?><!DOCTYPE svg PUBLIC "-//W3C//DTD SVG 1.1//EN" "http://www.w3.org/Graphics/SVG/1.1/DTD/svg11.dtd"><svg width="100%" height="100%" viewBox="0 0 834 625" version="1.1" xmlns="http://www.w3.org/2000/svg" xmlns:xlink="http://www.w3.org/1999/xlink" xml:space="preserve" xmlns:serif="http://www.serif.com/" style="fill-rule:evenodd;clip-rule:evenodd;stroke-linejoin:round;stroke-miterlimit:2;"><g><path d="M373.549,19.184l-329.306,89.696c-9.575,2.608 -15.219,12.477 -12.611,22.052l127.464,467.962c2.608,9.575 12.477,15.219 22.052,12.611l329.306,-89.696c9.575,-2.609 15.219,-12.478 12.611,-22.053l-127.463,-467.961c-2.609,-9.576 -12.477,-15.22 -22.053,-12.611" style="fill:#e6eef4;fill-rule:nonzero;stroke:#000;stroke-width:1.25px;"/><g><path d="M279.225,233.57l-68.253,164.609l145.611,102.721l68.254,-164.608l-145.612,-102.722Z" style="fill:#d71e00;fill-rule:nonzero;"/><path d="M108.511,244.34c1.424,4.921 6.568,7.757 11.491,6.333c4.921,-1.424 7.757,-6.568 6.332,-11.49l-30.943,-106.933c-1.424,-4.921 -6.568,-7.757 -11.49,-6.332c-4.921,1.424 -7.757,6.568 -6.333,11.49l30.943,106.932Z" style="fill:#d71e00;fill-rule:nonzero;"/><path d="M148.39,123.199c2.121,-4.664 0.061,-10.163 -4.602,-12.285c-4.663,-2.122 -10.163,-0.061 -12.285,4.602l-35.416,77.85c-2.122,4.663 -0.061,10.163 4.601,12.285c4.664,2.121 10.164,0.061 12.286,-4.602l35.416,-77.85Z" style="fill:#d71e00;fill-rule:nonzero;"/><path d="M122.948,166.949c-4.02,-3.177 -9.854,-2.494 -13.03,1.526c-3.177,4.019 -2.494,9.853 1.525,13.03l62.606,49.484c4.019,3.176 9.853,2.493 13.03,-1.526c3.176,-4.02 2.494,-9.853 -1.526,-13.03l-62.605,-49.484Z" style="fill:#d71e00;fill-rule:nonzero;"/></g></g><g><path d="M795.459,117.535l-326.765,-98.099c-9.501,-2.853 -19.508,2.533 -22.361,12.035l-139.404,464.351c-2.852,9.501 2.534,19.508 12.035,22.361l326.765,98.099c9.502,2.852 19.509,-2.534 22.361,-12.035l139.404,-464.351c2.853,-9.502 -2.532,-19.508 -12.035,-22.361" style="fill:#e6eef4;fill-rule:nonzero;stroke:#000;stroke-width:1.04px;"/><g><path d="M548.188,441.75c-7.136,20.834 -8.53,43.635 -8.792,50.89c-0.044,1.195 -1.222,1.953 -2.347,1.568l-62.597,-21.439c-1.125,-0.385 -1.582,-1.705 -0.895,-2.671c4.234,-5.93 17.215,-25.017 24.265,-45.6c-10.36,3.168 -21,2.984 -31.568,-0.635c-30.69,-10.512 -48.491,-45.402 -35.925,-75.819c7.061,-17.109 23.326,-28.289 41.336,-32.512c18.083,-4.246 32.14,-0.266 43.452,6.957c-4.69,-12.045 -5.33,-25.733 -0.816,-38.912c11.345,-33.124 50.315,-48.955 82.357,-30.562c20.061,11.504 31.081,35.002 27.301,57.812c-2.929,17.698 -13.259,31.567 -26.888,39.73c13.456,1.241 27.098,6.786 38.838,21.442c11.549,14.423 17.515,33.179 12.556,50.971c-8.818,31.606 -44.318,48.12 -74.94,37.631c-10.426,-3.568 -19.21,-10.178 -25.337,-18.851" style="fill-rule:nonzero;"/><path d="M472.533,87.571l-17.251,50.367c-6.331,18.487 3.59,38.745 22.077,45.077c18.487,6.332 38.746,-3.59 45.077,-22.077l17.251,-50.367c6.331,-18.486 -3.59,-38.745 -22.077,-45.077c-18.487,-6.331 -38.746,3.591 -45.077,22.077Zm50.366,17.251l-17.25,50.366c-3.156,9.215 -13.324,14.195 -22.539,11.039c-9.214,-3.156 -14.194,-13.324 -11.038,-22.539l17.25,-50.366c3.156,-9.215 13.324,-14.195 22.539,-11.039c9.214,3.156 14.194,13.324 11.038,22.539Z" style="fill-rule:nonzero;"/><path d="M506.476,191.111c2.756,4.052 8.275,5.103 12.328,2.346c4.052,-2.756 5.102,-8.275 2.346,-12.328l-24.952,-36.683c-2.756,-4.052 -8.275,-5.102 -12.328,-2.346c-4.051,2.756 -5.102,8.275 -2.345,12.328l24.951,36.683Z" style="fill-rule:nonzero;"/></g></g></svg>