<?xml version="1.0" encoding="UTF-8" standalone="no"?><!DOCTYPE svg PUBLIC "-//W3C//DTD SVG 1.1//EN" "http://www.w3.org/Graphics/SVG/1.1/DTD/svg11.dtd"><svg width="100%" height="100%" viewBox="0 0 3475 871" version="1.1" xmlns="http://www.w3.org/2000/svg" xmlns:xlink="http://www.w3.org/1999/xlink" xml:space="preserve" xmlns:serif="http://www.serif.com/" style="fill-rule:evenodd;clip-rule:evenodd;stroke-linejoin:round;stroke-miterlimit:2;"><g><path d="M2027.98,8.55l-557.521,0c-16.208,0 -29.341,13.133 -29.341,29.342l-0,792.271c-0,16.212 13.133,29.341 29.341,29.341l557.521,0c16.213,0 29.346,-13.129 29.346,-29.342l0,-792.27c0,-16.209 -13.129,-29.342 -29.346,-29.342" style="fill:#e6eef4;fill-rule:nonzero;stroke:#000;stroke-width:1.75px;"/><g><path d="M1749.22,301.983l-176.059,220.075l176.059,220.075l176.058,-220.075l-176.058,-220.075Z" style="fill:#d71e00;fill-rule:nonzero;"/><path d="M1543.83,257.967c32.308,-0 58.683,-26.375 58.683,-58.688l0,-88.029c0,-8.104 -6.566,-14.671 -14.671,-14.671c-8.104,0 -14.675,6.567 -14.675,14.671l0,88.029c0,16.109 -13.237,29.346 -29.341,29.346c-12.438,0 -23.513,-7.967 -27.659,-19.567c-2.729,-7.629 -11.124,-11.604 -18.754,-8.875c-7.633,2.725 -11.608,11.121 -8.879,18.755c8.288,23.166 30.346,39.029 55.296,39.029Z" style="fill:#d71e00;fill-rule:nonzero;"/><path d="M1543.82,52.567c-32.413,-0 -58.684,26.271 -58.684,58.683c0,32.417 26.271,58.688 58.684,58.688c32.412,-0 58.687,-26.271 58.687,-58.688c0,-32.412 -26.275,-58.683 -58.687,-58.683Zm-0,88.029c-16.209,-0 -29.342,-13.138 -29.342,-29.346c0,-16.204 13.133,-29.342 29.342,-29.342c16.208,0 29.346,13.138 29.346,29.342c-0,16.208 -13.138,29.346 -29.346,29.346Z" style="fill:#d71e00;fill-rule:nonzero;"/></g></g><g><path d="M642.213,8.408l-557.705,0c-16.22,0 -29.354,13.138 -29.354,29.354l0,792.53c0,16.221 13.134,29.354 29.354,29.354l557.705,-0c16.216,-0 29.354,-13.134 29.354,-29.354l-0,-792.53c-0,-16.216 -13.134,-29.354 -29.354,-29.354" style="fill:#e6eef4;fill-rule:nonzero;stroke:#000;stroke-width:1.75px;"/><g><path d="M407.388,610.146c-0.001,-0 73.691,73.692 132.091,-14.679c30.392,-45.996 9.788,-90.8 -22.616,-121.767l-139.5,-137.387c-7.855,-6.692 -19.917,-6.692 -27.784,-0l-141.525,137.387c-27.842,29.133 -51.558,75.654 -20.812,121.767c58.704,88.062 132.087,14.679 132.087,14.679c0,37.617 -10.712,85.958 -13.837,99.229c-0.425,1.846 0.995,3.504 2.891,3.504l109.971,0c1.892,0 3.3,-1.654 2.875,-3.491c-3.112,-13.309 -13.842,-61.859 -13.842,-99.242" style="fill-rule:nonzero;"/><path d="M157.896,257.908c32.321,0 58.704,-26.383 58.704,-58.704l0,-88.062c0,-8.104 -6.571,-14.675 -14.679,-14.675c-8.104,-0 -14.675,6.571 -14.675,14.675l-0,88.062c-0,16.109 -13.242,29.35 -29.354,29.35c-12.442,0 -23.521,-7.966 -27.671,-19.571c-2.729,-7.633 -11.125,-11.608 -18.758,-8.879c-7.634,2.729 -11.609,11.129 -8.88,18.758c8.288,23.18 30.35,39.046 55.313,39.046Z" style="fill-rule:nonzero;"/><path d="M157.888,52.438c-32.426,-0 -58.705,26.283 -58.705,58.708c0,32.421 26.284,58.704 58.705,58.704c32.424,0 58.708,-26.283 58.708,-58.704c-0,-32.425 -26.283,-58.708 -58.708,-58.708Zm-0,88.058c-16.213,-0 -29.35,-13.138 -29.35,-29.35c-0,-16.217 13.137,-29.354 29.35,-29.354c16.216,-0 29.354,13.137 29.354,29.354c-0,16.212 -13.138,29.35 -29.355,29.35Z" style="fill-rule:nonzero;"/></g></g><g><path d="M3390.34,8.363l-557.767,-0c-16.221,-0 -29.358,13.137 -29.358,29.358l-0,792.617c-0,16.216 13.137,29.354 29.358,29.354l557.767,-0c16.216,-0 29.354,-13.138 29.354,-29.354l-0,-792.617c-0,-16.221 -13.138,-29.359 -29.354,-29.359" style="fill:#e6eef4;fill-rule:nonzero;stroke:#000;stroke-width:1.75px;"/><g><path d="M2848.05,244.388c-0,8.128 6.589,14.719 14.719,14.719c8.128,-0 14.719,-6.589 14.719,-14.719l-0,-176.62c-0,-8.128 -6.589,-14.719 -14.719,-14.719c-8.128,0 -14.719,6.589 -14.719,14.719l-0,176.62Z" style="fill:#d71e00;fill-rule:nonzero;"/><path d="M2906.92,111.924l0,88.31c0,32.414 26.459,58.873 58.873,58.873c32.414,-0 58.873,-26.459 58.873,-58.873l-0,-88.31c-0,-32.415 -26.459,-58.873 -58.873,-58.873c-32.414,-0 -58.873,26.458 -58.873,58.873Zm88.309,-0l0,88.31c0,16.156 -13.28,29.437 -29.436,29.437c-16.156,-0 -29.436,-13.281 -29.436,-29.437l-0,-88.31c-0,-16.157 13.28,-29.437 29.436,-29.437c16.156,0 29.436,13.28 29.436,29.437Z" style="fill:#d71e00;fill-rule:nonzero;"/><path d="M3112.98,406.29c15.852,-40.372 49.394,-73.591 91.504,-73.591c35.442,-0 67.028,16.661 88.311,44.155c26.698,34.5 45.567,111.3 -12.864,169.732c-29.643,29.642 -166.951,168.789 -166.951,168.789c0,-0 -137.308,-139.147 -166.949,-168.79c-58.433,-58.433 -39.564,-135.233 -12.863,-169.733c21.283,-27.494 52.868,-44.155 88.31,-44.155c42.108,0.002 75.651,33.221 91.502,73.593" style="fill:#d71e00;fill-rule:nonzero;"/><path d="M2877.48,67.768c-0,-8.128 -6.589,-14.719 -14.719,-14.719c-8.128,0 -14.719,6.589 -14.719,14.719l-0,14.719c-0,8.128 6.589,14.719 14.719,14.719c8.128,0 14.719,-6.589 14.719,-14.719l-0,-14.719Z" style="fill:#d71e00;fill-rule:nonzero;"/></g></g><g><path d="M2709.73,8.558l-557.512,0c-16.209,0 -29.342,13.134 -29.342,29.342l0,792.254c0,16.213 13.133,29.342 29.342,29.342l557.512,-0c16.213,-0 29.342,-13.129 29.342,-29.342l-0,-792.254c-0,-16.208 -13.129,-29.342 -29.342,-29.342" style="fill:#e6eef4;fill-rule:nonzero;stroke:#000;stroke-width:1.75px;"/><g><path d="M2430.97,404.683c15.8,-40.241 49.233,-73.354 91.213,-73.354c35.324,0 66.812,16.608 88.024,44.013c26.617,34.391 45.425,110.945 -12.82,169.191c-29.55,29.546 -166.417,168.25 -166.417,168.25c0,0 -136.871,-138.704 -166.417,-168.25c-58.246,-58.246 -39.437,-134.804 -12.825,-169.191c21.217,-27.409 52.7,-44.017 88.029,-44.017c41.975,0.004 75.413,33.117 91.213,73.358" style="fill:#d71e00;fill-rule:nonzero;"/><path d="M2254.17,62.604c-4.463,-13.375 -23.379,-13.375 -27.838,0l-58.687,176.058c-2.563,7.684 1.591,15.992 9.279,18.555c7.687,2.566 15.996,-1.592 18.558,-9.275l58.683,-176.059l-27.837,0l58.687,176.059c2.563,7.683 10.871,11.841 18.559,9.275c7.683,-2.563 11.841,-10.871 9.275,-18.554l-58.679,-176.059Z" style="fill:#d71e00;fill-rule:nonzero;"/><path d="M2269.59,199.288c8.1,-0 14.67,-6.571 14.67,-14.671c0,-8.105 -6.57,-14.675 -14.67,-14.675l-58.688,-0c-8.1,-0 -14.671,6.571 -14.671,14.675c0,8.1 6.567,14.671 14.671,14.671l58.688,-0Z" style="fill:#d71e00;fill-rule:nonzero;"/></g></g><g><path d="M1327.75,8.513l-557.908,-0c-16.225,-0 -29.367,13.133 -29.367,29.345l0,792.338c0,16.212 13.142,29.346 29.367,29.346l557.908,-0c16.225,-0 29.367,-13.134 29.367,-29.346l-0,-792.338c-0,-16.212 -13.142,-29.345 -29.367,-29.345" style="fill:#e6eef4;fill-rule:nonzero;stroke:#000;stroke-width:1.75px;"/><g><path d="M1051.13,404.442c15.929,-40.575 49.642,-73.963 91.963,-73.963c35.62,0 67.366,16.746 88.758,44.379c26.833,34.675 45.796,111.863 -12.929,170.588c-29.792,29.791 -167.792,169.641 -167.792,169.641c0,0 -138.004,-139.85 -167.796,-169.641c-58.725,-58.729 -39.762,-135.917 -12.929,-170.592c21.392,-27.629 53.138,-44.375 88.758,-44.375c42.321,0 76.034,33.388 91.967,73.963" style="fill:#d71e00;fill-rule:nonzero;"/><path d="M844.029,241.721c32.579,-0 59.171,-26.592 59.171,-59.171l0,-118.342c0,-8.166 -6.621,-14.791 -14.792,-14.791c-8.171,-0 -14.795,6.62 -14.795,14.791l-0,118.342c-0,16.242 -13.346,29.587 -29.584,29.587c-16.237,0 -29.587,-13.345 -29.587,-29.587c-0,-8.167 -6.621,-14.792 -14.792,-14.792c-8.171,0 -14.796,6.621 -14.796,14.792c0.004,32.579 26.596,59.171 59.175,59.171Z" style="fill:#d71e00;fill-rule:nonzero;"/><path d="M917.992,79.004c8.171,0 14.795,-6.625 14.795,-14.796c0,-8.171 -6.625,-14.791 -14.795,-14.791l-59.167,-0c-8.171,-0 -14.796,6.621 -14.796,14.791c0,8.171 6.625,14.796 14.796,14.796l59.167,0Z" style="fill:#d71e00;fill-rule:nonzero;"/></g></g></svg>