<?xml version="1.0" encoding="UTF-8" standalone="no"?><!DOCTYPE svg PUBLIC "-//W3C//DTD SVG 1.1//EN" "http://www.w3.org/Graphics/SVG/1.1/DTD/svg11.dtd"><svg width="100%" height="100%" viewBox="0 0 1738 1738" version="1.1" xmlns="http://www.w3.org/2000/svg" xmlns:xlink="http://www.w3.org/1999/xlink" xml:space="preserve" xmlns:serif="http://www.serif.com/" style="fill-rule:evenodd;clip-rule:evenodd;stroke-linejoin:round;stroke-miterlimit:2;"><g><path d="M1671.25,255.695l0,1025.03c0,58.028 -47.012,105.077 -105.041,105.077l-1394.91,0c-58.033,0 -105.046,-47.049 -105.046,-105.077l-0,-1025.03c-0,-58.029 47.013,-105.078 105.046,-105.078l1394.9,-0c58.028,-0 105.046,47.049 105.046,105.078Z" style="fill:#ccd8e5;fill-rule:nonzero;"/><path d="M1671.25,255.695l0,1025.03c0,58.028 -47.012,105.077 -105.041,105.077l-932.882,0l76.962,-187.691l429.524,-1047.5l426.391,-0c58.028,-0 105.046,47.049 105.046,105.078Z" style="fill:#dfeaf4;fill-rule:nonzero;"/><path d="M1671.25,255.695l0,942.419l-1604.99,0l-0,-942.419c-0,-58.029 47.013,-105.078 105.041,-105.078l1394.91,-0c58.023,-0 105.041,47.049 105.041,105.078Z" style="fill:#b8e9f2;fill-rule:nonzero;"/><path d="M1671.25,255.695l0,942.419l-960.961,0l429.524,-1047.5l426.391,-0c58.028,-0 105.046,47.049 105.046,105.078Z" style="fill:#d4f7fc;fill-rule:nonzero;"/><path d="M1152.12,1595.13l-566.745,0l40.463,-94.673l49.029,-114.657l387.761,0l49.029,114.657l40.463,94.673Z" style="fill:#ccd8e5;fill-rule:nonzero;"/><path d="M1111.66,1500.46l-485.819,0l49.029,-114.657l387.761,0l49.029,114.657Z" style="fill:#bac6d1;fill-rule:nonzero;"/><path d="M1034.88,450.405l-545.853,0c-43.754,0 -79.223,35.465 -79.223,79.219l-0,378.443c-0,43.753 35.469,79.223 79.223,79.223l545.853,0c43.754,0 79.223,-35.47 79.223,-79.223l0,-378.443c-0.005,-43.754 -35.469,-79.219 -79.223,-79.219Z" style="fill:#f75757;fill-rule:nonzero;"/><path d="M1327.7,461.28l-213.598,116.124l0,282.877l213.598,116.13l-0,-515.131Z" style="fill:#db4949;fill-rule:nonzero;"/><path d="M920.294,718.845l-233.968,-135.084l0,270.163l233.968,-135.079Z" style="fill:#b8e9f2;fill-rule:nonzero;"/><path d="M1341.5,433.942c-8.184,-4.868 -18.328,-5.061 -26.695,-0.517l-173.704,94.439l0,-2.377c0,-58.566 -47.65,-106.216 -106.216,-106.216l-545.853,-0c-58.571,-0 -106.222,47.65 -106.222,106.216l0,378.443c0,58.566 47.651,106.222 106.222,106.222l391.046,-0c14.912,-0 26.998,-12.092 26.998,-26.998c0,-14.912 -12.086,-26.999 -26.998,-26.999l-391.046,0c-28.795,0 -52.225,-23.43 -52.225,-52.225l-0,-378.448c-0,-28.79 23.425,-52.22 52.225,-52.22l545.853,-0c28.795,-0 52.22,23.425 52.22,52.22l0,378.443c0,28.795 -23.425,52.225 -52.22,52.225l-64.813,0c-14.912,0 -26.998,12.092 -26.998,26.998c-0,14.912 12.091,26.998 26.998,26.998l64.813,0c58.571,0 106.216,-47.65 106.216,-106.221l0,-2.371l173.704,94.438c4.032,2.183 8.467,3.275 12.901,3.275c4.779,-0 9.548,-1.264 13.799,-3.792c8.18,-4.863 13.199,-13.685 13.199,-23.206l-0,-515.131c-0.005,-9.516 -5.019,-18.333 -13.204,-23.196Zm-40.792,492.923l-159.607,-86.766l0,-250.77l159.607,-86.771l-0,424.307Z" style="fill-rule:nonzero;"/><path d="M933.79,691.33l-233.962,-135.074c-8.352,-4.826 -18.652,-4.826 -26.998,0c-8.352,4.821 -13.502,13.732 -13.502,23.379l0,270.158c0,9.647 5.15,18.557 13.502,23.384c4.173,2.413 8.832,3.619 13.496,3.619c4.665,0 9.324,-1.206 13.502,-3.619l233.962,-135.074c8.352,-4.826 13.497,-13.737 13.497,-23.384c-0,-9.652 -5.14,-18.568 -13.497,-23.389Zm-220.466,111.695l0,-176.633l152.969,88.317l-152.969,88.316Z" style="fill-rule:nonzero;"/><path d="M1566.2,119.493l-1394.9,-0c-72.815,-0 -132.055,59.24 -132.055,132.054l0,191.912c0,14.912 12.086,26.998 26.998,26.998c14.907,-0 26.998,-12.092 26.998,-26.998l0,-191.912c0,-43.043 35.016,-78.058 78.059,-78.058l1394.9,-0c43.043,-0 78.059,35.015 78.059,78.058l-0,921.564l-169.175,0c-14.912,0 -26.998,12.092 -26.998,26.999c-0,14.906 12.086,26.998 26.998,26.998l169.175,-0l-0,49.488c-0,43.043 -35.021,78.059 -78.059,78.059l-1394.9,-0c-43.048,-0 -78.059,-35.021 -78.059,-78.059l0,-49.488l1291.85,-0c14.907,-0 26.993,-12.092 26.993,-26.998c-0,-14.907 -12.086,-26.999 -26.993,-26.999l-1291.85,0l0,-639.653c0,-14.912 -12.091,-26.999 -26.998,-26.999c-14.912,0 -26.998,12.087 -26.998,26.999l0,743.143c0,72.815 59.24,132.055 132.055,132.055l462.66,0l-66.406,155.355l-129.72,0c-14.912,0 -26.999,12.087 -26.999,26.998c0,14.907 12.092,26.998 26.999,26.998l861.827,0c14.912,0 26.998,-12.091 26.998,-26.998c0,-14.911 -12.086,-26.998 -26.998,-26.998l-129.72,0l-66.406,-155.355l462.665,0c72.815,0 132.055,-59.24 132.055,-132.055l-0,-1025.05c-0,-72.814 -59.24,-132.054 -132.05,-132.054Zm-454.987,1444.51l-484.936,0l46.135,-107.935l392.671,0l46.13,107.935Z" style="fill-rule:nonzero;"/><path d="M862.182,1258.3c-11.397,2.846 -19.822,13.115 -20.386,24.851c-1.18,24.413 29.505,37.679 46.433,19.999c8.629,-9.015 9.971,-23.258 2.957,-33.652c-6.2,-9.417 -18.088,-13.93 -29.004,-11.198Z" style="fill-rule:nonzero;"/></g></svg>