<?xml version="1.0" encoding="UTF-8" standalone="no"?><!DOCTYPE svg PUBLIC "-//W3C//DTD SVG 1.1//EN" "http://www.w3.org/Graphics/SVG/1.1/DTD/svg11.dtd"><svg width="100%" height="100%" viewBox="0 0 1738 1738" version="1.1" xmlns="http://www.w3.org/2000/svg" xmlns:xlink="http://www.w3.org/1999/xlink" xml:space="preserve" xmlns:serif="http://www.serif.com/" style="fill-rule:evenodd;clip-rule:evenodd;stroke-linejoin:round;"><g id="shield"><g id="编组"><rect id="矩形" x="-37.401" y="-37.401" width="1812.3" height="1812.3" style="fill:#fff;fill-opacity:0.01;"/><path id="矩形1" serif:id="矩形" d="M189.139,274.304l679.941,-198.435l679.286,198.435l-0,406.938c-0,427.723 -273.724,807.445 -679.516,942.656c-405.901,-135.206 -679.711,-515.019 -679.711,-942.842l-0,-406.752Z" style="fill:#2f88ff;fill-rule:nonzero;stroke:#004bff;stroke-width:99.53px;"/></g><g><path d="M1006.28,802.573c-16.364,0 -29.629,-13.265 -29.629,-29.629l0,-172.53c0,-58.15 -47.308,-105.458 -105.458,-105.458c-58.148,0 -105.457,47.308 -105.457,105.458c-0,16.364 -13.266,29.629 -29.629,29.629c-16.364,0 -29.629,-13.265 -29.629,-29.629c0,-90.825 73.891,-164.715 164.715,-164.715c90.825,-0 164.716,73.892 164.716,164.715l-0,172.53c-0,16.364 -13.265,29.629 -29.629,29.629Z" style="fill:#b1b4b5;fill-rule:nonzero;"/><path d="M1051.47,1048.06l-360.549,0c-33.662,0 -60.951,-27.288 -60.951,-60.95l0,-208.451c0,-33.662 27.289,-60.951 60.951,-60.951l360.549,0c33.662,0 60.951,27.289 60.951,60.951l-0,208.45c-0,33.663 -27.289,60.951 -60.951,60.951Z" style="fill:#ffb636;fill-rule:nonzero;"/><path d="M682.861,998.934l-3.053,0c-9.618,0 -17.415,-7.796 -17.415,-17.414l0,-197.282c0,-9.617 7.797,-17.414 17.415,-17.414l3.053,-0c9.618,-0 17.415,7.797 17.415,17.414l-0,197.282c-0,9.618 -7.797,17.414 -17.415,17.414Z" style="fill:#ffd469;fill-rule:nonzero;"/></g></g></svg>